<svg height="512pt" viewBox="0 0 512.00048 512" width="512pt" xmlns="http://www.w3.org/2000/svg"><path d="m490.800781 142.160156 21.199219-21.199218-19.023438-19.023438 18.828126-18.828125-82.914063-82.914063-18.828125 18.828126-19.023438-19.023438-21.199218 21.199219 19.023437 19.023437-19.21875 19.214844-19.019531-19.023438-21.199219 21.199219 19.023438 19.023438-18.800781 18.796875 7.703124 7.703125-63.988281 63.988281c-13.480469-5.414062-27.234375-7.984375-40.53125-7.46875-27.023437 1.054688-52.011719 14.144531-74.269531 38.90625l-2.070312 2.949219c-.121094.230469-12.898438 22.960937-37.074219 26.589843-64.261719 9.664063-105.84375 42.976563-117.078125 93.804688-15.03125 68.078125 47.1875 131.253906 49.84375 133.910156 2.371094 2.371094 52.941406 52.183594 112.191406 52.183594 7.136719 0 14.40625-.722656 21.726562-2.339844 50.820313-11.234375 84.132813-52.8125 93.800782-117.082031 3.628906-24.160156 26.4375-36.988281 26.585937-37.070313l2.953125-2.070312c24.761719-22.257812 37.851563-47.246094 38.90625-74.269531.515625-13.304688-2.046875-27.058594-7.464844-40.539063l63.980469-63.980468 7.703125 7.703124 18.800782-18.800781 19.019531 19.023438 21.199219-21.199219-19.023438-19.019531 19.21875-19.21875zm-21.390625-59.046875-56.84375 56.839844-40.519531-40.519531 56.84375-56.839844zm-178.90625 247.023438c-7.507812 4.546875-35.054687 23.398437-40.25 57.984375-5.441406 36.171875-22.109375 81.542968-70.621094 92.265625-51.957031 11.472656-105.726562-41.25-106.25-41.769531-.535156-.53125-53.296874-54.03125-41.769531-106.246094 10.722657-48.515625 56.09375-65.183594 92.261719-70.625 34.589844-5.191406 53.441406-32.738282 57.988281-40.25 20.988281-22.84375 43.671875-31.714844 67.699219-26.574219l-61.515625 61.515625c-9.027344 2.417969-17.5625 7.148438-24.632813 14.21875-21.484374 21.484375-21.484374 56.445312 0 77.929688 10.742188 10.746093 24.851563 16.113281 38.964844 16.113281 14.109375 0 28.226563-5.371094 38.964844-16.113281 7.074219-7.070313 11.800781-15.605469 14.21875-24.632813l61.503906-61.507813c5.144532 24.023438-3.71875 46.703126-26.5625 67.691407zm-105.890625-2.75c-9.796875-9.796875-9.796875-25.734375 0-35.535157 4.898438-4.898437 11.332031-7.347656 17.765625-7.347656 6.4375 0 12.871094 2.449219 17.769532 7.347656 9.796874 9.800782 9.796874 25.738282 0 35.535157-9.796876 9.796875-25.738282 9.796875-35.535157 0zm199.050781-173.933594-131.847656 131.847656c-2.597656-5.289062-6.078125-10.253906-10.472656-14.644531-4.390625-4.394531-9.355469-7.875-14.644531-10.472656l131.847656-131.847656zm0 0"/><path d="m81.742188 376.238281 21.195312-21.199219 54.015625 54.015626-21.195313 21.199218zm0 0"/></svg>