<svg height="512pt" viewBox="0 -20 512 512" width="512pt" xmlns="http://www.w3.org/2000/svg"><path d="m401.574219 165.867188-15.8125 25.496093c15.695312 9.734375 25.0625 26.53125 25.0625 44.929688 0 18.398437-9.371094 35.195312-25.0625 44.929687l15.8125 25.496094c24.578125-15.25 39.25-41.574219 39.25-70.425781 0-28.851563-14.671875-55.179688-39.25-70.425781zm0 0"/><path d="m491.355469 158.148438c-13.078125-22.949219-31.875-42.453126-54.359375-56.398438l-15.8125 25.492188c38.082031 23.621093 60.816406 64.390624 60.816406 109.054687 0 44.65625-22.734375 85.425781-60.816406 109.046875l15.8125 25.492188c22.484375-13.945313 41.28125-33.449219 54.359375-56.394532 13.503906-23.703125 20.644531-50.726562 20.644531-78.144531 0-27.425781-7.140625-54.445313-20.644531-78.148437zm0 0"/><path d="m0 131.214844v210.15625h114.847656l222.152344 131.214844v-472.585938l-222.152344 131.214844zm30 30h73.824219v150.15625h-73.824219zm103.824219 156.519531v-162.882813l105.695312-62.429687v287.742187zm173.175781 102.289063-37.480469-22.136719v-323.1875l37.480469-22.136719zm0 0"/></svg>