<svg height="512pt" viewBox="0 -93 512 512" width="512pt" xmlns="http://www.w3.org/2000/svg"><path d="m0 0v326h512v-326zm482 30v206.332031h-106.863281l-7.039063-23.332031h-224.195312l-7.042969 23.332031h-106.859375v-206.332031zm-452 266v-29.667969h97.808594l-8.949219 29.667969zm120.195312 0 15.992188-53h179.628906l15.988282 53zm242.945313 0-8.949219-29.667969h97.808594v29.667969zm0 0"/><path d="m143.832031 178.722656h224.335938c31.335937 0 56.832031-25.492187 56.832031-56.832031 0-31.335937-25.496094-56.832031-56.832031-56.832031h-224.335938c-31.335937 0-56.832031 25.496094-56.832031 56.832031 0 31.339844 25.496094 56.832031 56.832031 56.832031zm50.082031-30c4.304688-7.996094 6.75-17.132812 6.75-26.832031s-2.445312-18.835937-6.75-26.832031h124.171876c-4.304688 7.996094-6.75 17.132812-6.75 26.832031s2.445312 18.835937 6.75 26.832031zm201.085938-26.832031c0 14.796875-12.035156 26.835937-26.832031 26.835937s-26.832031-12.039062-26.832031-26.835937c0-14.792969 12.035156-26.832031 26.832031-26.832031s26.832031 12.039062 26.832031 26.832031zm-251.167969-26.832031c14.796875 0 26.832031 12.039062 26.832031 26.832031 0 14.796875-12.035156 26.835937-26.832031 26.835937s-26.832031-12.039062-26.832031-26.835937c0-14.792969 12.035156-26.832031 26.832031-26.832031zm0 0"/></svg>