<svg height="512pt" viewBox="0 -52 512 511" width="512pt" xmlns="http://www.w3.org/2000/svg"><path d="m457.777344 70.835938v-70.335938h-403.554688v70.332031h-54.222656v337h512v-337h-54.222656zm24.222656 73.046874h-91.136719v-43.046874h91.136719zm-330.863281 0v-43.046874h209.726562v43.046874zm-66.914063-113.382812h343.554688v40.332031h-343.554688zm36.914063 70.335938v43.046874h-91.136719v-43.046874zm-91.136719 73.046874h211v203.953126h-211zm241 203.953126v-203.953126h211v203.953126zm0 0"/><path d="m136.136719 200.335938c-42.171875 0-76.480469 34.308593-76.480469 76.480468s34.308594 76.480469 76.480469 76.480469 76.476562-34.308594 76.476562-76.480469-34.304687-76.480468-76.476562-76.480468zm0 122.960937c-25.628907 0-46.480469-20.851563-46.480469-46.480469s20.851562-46.480468 46.480469-46.480468c25.628906 0 46.476562 20.851562 46.476562 46.480468s-20.847656 46.480469-46.476562 46.480469zm0 0"/><path d="m375.863281 200.335938c-42.171875 0-76.476562 34.308593-76.476562 76.480468s34.308593 76.480469 76.476562 76.480469c42.171875 0 76.480469-34.308594 76.480469-76.480469s-34.308594-76.480468-76.480469-76.480468zm0 122.960937c-25.628906 0-46.476562-20.851563-46.476562-46.480469s20.847656-46.480468 46.476562-46.480468c25.628907 0 46.480469 20.851562 46.480469 46.480468s-20.851562 46.480469-46.480469 46.480469zm0 0"/><path d="m154.117188 276.816406c0 9.933594-8.050782 17.984375-17.980469 17.984375-9.933594 0-17.984375-8.050781-17.984375-17.984375 0-9.929687 8.050781-17.980468 17.984375-17.980468 9.929687 0 17.980469 8.050781 17.980469 17.980468zm0 0"/><path d="m393.847656 276.816406c0 9.933594-8.050781 17.984375-17.984375 17.984375-9.929687 0-17.980469-8.050781-17.980469-17.984375 0-9.929687 8.050782-17.980468 17.980469-17.980468 9.933594 0 17.984375 8.050781 17.984375 17.980468zm0 0"/></svg>