<svg height="512pt" viewBox="-85 0 512 512" width="512pt" xmlns="http://www.w3.org/2000/svg"><path d="m171.066406 366.03125c62.328125 0 113.039063-50.710938 113.039063-113.039062v-139.953126c0-62.328124-50.710938-113.039062-113.039063-113.039062-62.332031 0-113.039062 50.710938-113.039062 113.039062v139.953126c0 62.328124 50.707031 113.039062 113.039062 113.039062zm0-336.03125c43.980469 0 80.066406 34.378906 82.84375 77.671875h-37.84375v30h38.039063v30.34375h-38.039063v30h38.039063v30.34375h-38.039063v30h37.84375c-2.777344 43.296875-38.863281 77.671875-82.84375 77.671875-43.984375 0-80.070312-34.375-82.847656-77.671875h37.847656v-30h-38.039062v-30.34375h38.039062v-30h-38.039062v-30.34375h38.039062v-30h-37.847656c2.777344-43.292969 38.863281-77.671875 82.847656-77.671875zm0 0"/><path d="m291.675781 373.992188c32.25-32.066407 50.167969-74.773438 50.453125-120.246094l-30-.1875c-.484375 77.300781-63.765625 140.191406-141.0625 140.191406-77.300781 0-140.582031-62.890625-141.066406-140.191406l-30 .1875c.285156 45.476562 18.203125 88.179687 50.453125 120.246094 28.699219 28.535156 65.753906 45.65625 105.613281 49.101562v58.90625h-37v30h104v-30h-37v-58.90625c39.859375-3.445312 76.914063-20.566406 105.609375-49.101562zm0 0"/><path d="m156.066406 90.085938h30v185.859374h-30zm0 0"/></svg>