<svg height="512pt" viewBox="0 0 512 512" width="512pt" xmlns="http://www.w3.org/2000/svg"><path d="m437.019531 74.980469c-48.351562-48.351563-112.640625-74.980469-181.019531-74.980469s-132.667969 26.628906-181.019531 74.980469c-48.351563 48.351562-74.980469 112.640625-74.980469 181.019531s26.628906 132.667969 74.980469 181.019531c48.351562 48.351563 112.640625 74.980469 181.019531 74.980469s132.667969-26.628906 181.019531-74.980469c48.351563-48.351562 74.980469-112.640625 74.980469-181.019531s-26.628906-132.667969-74.980469-181.019531zm-181.019531 407.019531c-124.617188 0-226-101.382812-226-226s101.382812-226 226-226 226 101.382812 226 226-101.382812 226-226 226zm0 0"/><path d="m256 61.691406c-107.140625 0-194.308594 87.167969-194.308594 194.308594s87.167969 194.308594 194.308594 194.308594 194.308594-87.167969 194.308594-194.308594-87.167969-194.308594-194.308594-194.308594zm0 358.617188c-90.601562 0-164.308594-73.707032-164.308594-164.308594s73.707032-164.308594 164.308594-164.308594 164.308594 73.707032 164.308594 164.308594-73.707032 164.308594-164.308594 164.308594zm0 0"/><path d="m167.667969 344.332031h176.664062v-176.664062h-176.664062zm30-146.664062h116.664062v116.667969h-116.664062zm0 0"/></svg>