<svg height="512pt" viewBox="0 0 512 512" width="512pt" xmlns="http://www.w3.org/2000/svg"><path d="m256 61.691406c-107.140625 0-194.308594 87.167969-194.308594 194.308594s87.167969 194.308594 194.308594 194.308594 194.308594-87.167969 194.308594-194.308594-87.167969-194.308594-194.308594-194.308594zm0 358.617188c-90.601562 0-164.308594-73.707032-164.308594-164.308594s73.707032-164.308594 164.308594-164.308594 164.308594 73.707032 164.308594 164.308594-73.707032 164.308594-164.308594 164.308594zm0 0"/><path d="m256 178.132812c-42.9375 0-77.867188 34.929688-77.867188 77.867188s34.929688 77.867188 77.867188 77.867188 77.867188-34.929688 77.867188-77.867188-34.929688-77.867188-77.867188-77.867188zm0 125.734376c-26.394531 0-47.867188-21.472657-47.867188-47.867188s21.472657-47.867188 47.867188-47.867188 47.867188 21.472657 47.867188 47.867188-21.472657 47.867188-47.867188 47.867188zm0 0"/><path d="m512 256c0-42.230469-10.410156-83.714844-30.207031-120.699219 24.285156-28.886719 22.84375-72.191406-4.328125-99.363281-27.023438-27.019531-69.996094-28.59375-98.882813-4.730469-37.453125-20.449219-79.585937-31.207031-122.582031-31.207031s-85.128906 10.757812-122.582031 31.207031c-28.882813-23.867187-71.859375-22.289062-98.882813 4.730469-27.171875 27.171875-28.613281 70.476562-4.328125 99.363281-19.796875 36.984375-30.207031 78.46875-30.207031 120.699219 0 42.9375 10.730469 85.015625 31.125 122.429688-25.234375 28.878906-24.097656 72.925781 3.410156 100.433593 13.902344 13.902344 32.382813 21.558594 52.042969 21.558594 18.195313 0 35.378906-6.558594 48.859375-18.554687 36.953125 19.746093 78.378906 30.132812 120.5625 30.132812s83.609375-10.386719 120.5625-30.132812c13.476562 11.996093 30.664062 18.554687 48.859375 18.554687 19.65625 0 38.140625-7.65625 52.042969-21.558594 27.507812-27.507812 28.644531-71.554687 3.410156-100.433593 20.394531-37.414063 31.125-79.492188 31.125-122.429688zm-59.351562 136.777344c1.292968 1.039062 2.507812 2.121094 3.601562 3.21875 17 16.996094 17 44.65625 0 61.65625-8.234375 8.234375-19.183594 12.769531-30.828125 12.769531s-22.59375-4.535156-30.828125-12.769531c-1.179688-1.179688-2.304688-2.453125-3.4375-3.890625l-8.160156-10.34375-11.308594 6.753906c-34.871094 20.820313-74.875 31.828125-115.6875 31.828125s-80.816406-11.007812-115.6875-31.828125l-11.308594-6.753906-8.160156 10.34375c-1.132812 1.4375-2.257812 2.710937-3.4375 3.890625-8.234375 8.234375-19.183594 12.769531-30.828125 12.769531s-22.59375-4.535156-30.828125-12.769531c-17-17-17-44.660156 0-61.65625 1.09375-1.097656 2.304688-2.179688 3.601562-3.21875l10.269532-8.242188-6.84375-11.25c-21.441406-35.246094-32.777344-75.800781-32.777344-117.285156 0-40.746094 10.972656-80.695312 31.730469-115.523438l6.519531-10.9375-9.730469-8.207031c-1.058593-.894531-1.964843-1.71875-2.769531-2.523437-17-16.996094-17-44.65625 0-61.65625s44.660156-17 61.65625 0c.699219.703125 1.425781 1.492187 2.28125 2.488281l8.289062 9.660156 10.878907-6.609375c35.210937-21.386718 75.71875-32.691406 117.144531-32.691406s81.933594 11.304688 117.144531 32.691406l10.878907 6.605469 8.289062-9.65625c.855469-.996094 1.582031-1.789063 2.28125-2.488281 16.996094-17 44.65625-17 61.65625 0s17 44.65625 0 61.65625c-.804688.804687-1.710938 1.628906-2.769531 2.523437l-9.730469 8.207031 6.519531 10.9375c20.757813 34.828126 31.730469 74.777344 31.730469 115.523438 0 41.484375-11.335938 82.039062-32.777344 117.285156l-6.84375 11.25zm0 0"/></svg>