<svg height="511pt" viewBox="1 -13 511.999 511" width="511pt" xmlns="http://www.w3.org/2000/svg"><path d="m475.039062 264.21875v-44.03125c0-58.679688-22.851562-113.851562-64.34375-155.34375-41.496093-41.492188-96.664062-64.34375-155.34375-64.34375-58.679687 0-113.847656 22.851562-155.339843 64.34375-41.496094 41.496094-64.347657 96.664062-64.347657 155.34375v44.730469c-21.25 11.824219-35.664062 34.507812-35.664062 60.5v91.871093c0 38.15625 31.039062 69.195313 69.191406 69.195313h78.1875v-230.257813h-21.226562v-30.050781c0-74.308593 57.957031-134.765625 129.199218-134.765625 71.242188 0 129.199219 60.457032 129.199219 134.765625v30.050781h-19.929687v230.257813h78.1875c38.152344 0 69.191406-31.039063 69.191406-69.195313v-91.871093c0-26.515625-15.003906-49.585938-36.960938-61.199219zm-357.816406 192.109375h-48.03125c-21.523437 0-39.035156-17.511719-39.035156-39.039063v-91.871093c0-21.523438 17.511719-39.035157 39.035156-39.035157h48.03125zm138.128906-395.074219c-87.867187 0-159.355468 73.984375-159.355468 164.921875v30.050781h-26.804688c-1.128906 0-2.253906.03125-3.371094.085938v-36.125c0-104.507812 85.023438-189.53125 189.53125-189.53125 104.507813 0 189.53125 85.023438 189.53125 189.53125v36.09375c-.691406-.023438-1.378906-.054688-2.074218-.054688h-28.101563v-30.050781c.003907-90.9375-71.484375-164.921875-159.355469-164.921875zm226.492188 356.035156c0 21.527344-17.511719 39.039063-39.035156 39.039063h-48.03125v-169.945313h48.03125c21.527344 0 39.035156 17.511719 39.035156 39.035157zm0 0"/><path d="m185.71875 337.847656h30.15625v67.015625h-30.15625zm0 0"/><path d="m294.949219 337.847656h30.15625v67.015625h-30.15625zm0 0"/><path d="m240.335938 314.058594h30.15625v114.59375h-30.15625zm0 0"/></svg>