<svg height="512pt" viewBox="-70 0 512 512" width="512pt" xmlns="http://www.w3.org/2000/svg"><path d="m372.863281 13.914062-1.015625-13.914062h-370.21875l-1.015625 13.914062c-.164062 2.265626-3.890625 56.214844 9.1875 122.34375 7.738281 39.109376 19.792969 74.367188 35.835938 104.792969 17.230469 32.679688 39.125 59.808594 65.191406 80.910157-56.683594 63.125-49.339844 171.261718-48.972656 176.15625l1.039062 13.882812h247.6875l1.039063-13.882812c.367187-4.894532 7.710937-113.03125-48.972656-176.15625 26.066406-21.101563 47.960937-48.230469 65.191406-80.910157 16.042968-30.429687 28.097656-65.6875 35.832031-104.792969 13.085937-66.128906 9.355469-120.078124 9.191406-122.34375zm-342.78125 16.097657h313.3125c.132813 10.550781-.082031 26.492187-1.636719 45.660156h-310.039062c-1.554688-19.171875-1.765625-35.109375-1.636719-45.660156zm141.632813 275.460937c-39.382813-61.578125-49.667969-161.707031-52.214844-199.789062h52.234375v199.789062zm30.046875 0h-.015625v-199.785156h52.238281c-2.53125 38.058594-12.777344 138.132812-52.222656 199.785156zm-162.375-174.3125c-1.738281-8.730468-3.164063-17.253906-4.332031-25.476562h54.320312c2.175781 35.851562 11.109375 129.191406 46.648438 197.84375-60.203126-44.90625-85.792969-118.023438-96.636719-172.367188zm52.046875 350.828125c.050781-30.96875 4.90625-106.066406 48.089844-146.503906h94.429687c43.191406 40.441406 48.039063 115.546875 48.089844 146.503906zm146.019531-178.460937c35.539063-68.652344 44.472656-161.992188 46.648437-197.84375h54.320313c-1.167969 8.222656-2.589844 16.746094-4.332031 25.476562-10.84375 54.34375-36.433594 127.460938-96.636719 172.367188zm0 0"/></svg>