<svg height="512pt" viewBox="-73 0 512 512.001" width="512pt" xmlns="http://www.w3.org/2000/svg"><path d="m151.433594 296.058594c-34.164063 0-61.953125 27.792968-61.953125 61.953125 0 34.160156 27.789062 61.953125 61.953125 61.953125 34.121094 0 61.882812-27.730469 61.949218-61.835938h.003907v-174.132812c19.289062 6.328125 33.257812 24.503906 33.257812 45.878906v17.460938h30.015625v-17.460938c0-43.160156-35.117187-78.277344-78.28125-78.277344h-15.007812v153.347656c-9.332032-5.636718-20.261719-8.886718-31.9375-8.886718zm0 93.890625c-17.613282 0-31.941406-14.328125-31.941406-31.941407 0-17.609374 14.328124-31.9375 31.941406-31.9375 17.609375 0 31.9375 14.328126 31.9375 31.941407 0 17.609375-14.328125 31.9375-31.9375 31.9375zm0 0"/><path d="m109.835938 0-109.835938 109.835938v402.164062h366.136719v-512zm-8.789063 51.234375v49.8125h-49.8125zm235.078125 430.753906h-306.113281v-350.929687h101.046875v-101.046875h205.066406zm0 0"/></svg>