<svg height="512pt" viewBox="0 -108 512 512" width="512pt" xmlns="http://www.w3.org/2000/svg"><path d="m472.167969 0-45.054688 51.289062c-29.171875 33.207032-70.339843 52.253907-112.949219 52.253907h-2.832031v-17.84375h14.5v-30h-59v30h14.5v17.84375h-50.664062v-17.84375h14.5v-30h-59v30h14.5v17.84375h-50.667969v-17.84375h14.5v-30h-59v30h14.5v17.84375h-45.921875l-74.078125-39.457031v161.792968l73.660156-34.386718h46.339844v19.707031c0 25.644531 20.859375 46.5 46.5 46.5h94c25.640625 0 46.5-20.855469 46.5-46.5v-19.707031h7.164062c42.609376 0 83.777344 19.046874 112.949219 52.253906l45.054688 51.289062h39.832031v-295.035156zm-442.167969 114.054688 25.332031 13.492187v39.394531l-25.332031 11.824219zm247 97.144531c0 9.101562-7.402344 16.5-16.5 16.5h-94c-9.097656 0-16.5-7.398438-16.5-16.5v-19.707031h127zm205 49.570312-32.347656-36.820312c-34.867188-39.691407-84.25-62.457031-135.488282-62.457031h-228.832031v-27.949219h228.832031c51.238282 0 100.621094-22.765625 135.488282-62.457031l32.347656-36.820313zm0 0"/></svg>