<svg height="512pt" viewBox="-109 0 512 512" width="512pt" xmlns="http://www.w3.org/2000/svg"><path d="m240.941406 170.511719c-29.773437 0-54 24.226562-54 54v210.558593c0 25.875-21.050781 46.929688-46.929687 46.929688-25.878907 0-46.929688-21.054688-46.929688-46.929688v-10.070312h32v-70.816406c18.847657-14.027344 31.082031-36.464844 31.082031-61.710938v-161.714844h-30.558593v-84.28125c.003906-25.625-21.316407-46.476562-47.523438-46.476562s-47.527343 20.851562-47.527343 46.476562v84.28125h-30.554688v161.714844c0 25.246094 12.234375 47.683594 31.082031 61.710938v70.816406h32v10.070312c0 42.417969 34.511719 76.929688 76.929688 76.929688 42.421875 0 76.929687-34.511719 76.929687-76.929688v-210.558593c0-13.234375 10.769532-24 24-24 13.234375 0 24 10.765625 24 24v287.488281h30v-287.488281c0-29.777344-24.222656-54-54-54zm-180.386718-124.035157c0-9.085937 7.863281-16.476562 17.527343-16.476562 9.664063 0 17.523438 7.390625 17.523438 16.476562v84.28125h-35.050781zm65.609374 114.28125v29.253907h-96.164062v-29.253907zm-96.164062 59.253907h96.164062v72.460937c0 25.851563-21.03125 46.882813-46.882812 46.882813h-2.398438c-25.851562 0-46.882812-21.03125-46.882812-46.882813zm31.082031 147.703125c5.101563 1.070312 10.386719 1.640625 15.800781 1.640625h2.398438c5.414062 0 10.699219-.570313 15.800781-1.640625v27.285156h-34zm0 0"/></svg>