<svg height="512pt" viewBox="0 -41 512 512" width="512pt" xmlns="http://www.w3.org/2000/svg"><path d="m384.398438 105.40625c-6.546876-27.371094-21.433594-52.230469-42.789063-71.070312-25.097656-22.144532-57.371094-34.335938-90.871094-34.335938-75.773437 0-137.421875 61.644531-137.421875 137.421875 0 1.175781.015625 2.351563.046875 3.527344-1.164062-.035157-2.324219-.054688-3.484375-.054688-60.589844 0-109.878906 49.292969-109.878906 109.878907 0 60.585937 49.289062 109.875 109.878906 109.875v-30c-44.046875 0-79.878906-35.832032-79.878906-79.875 0-44.046876 35.832031-79.878907 79.878906-79.878907 5.675782 0 11.394532.617188 17.003906 1.832031l21.679688 4.699219-3.714844-21.871093c-1.015625-5.980469-1.53125-12.078126-1.53125-18.132813 0-59.234375 48.191406-107.421875 107.421875-107.421875 53.617188 0 99.386719 40.007812 106.464844 93.0625l1.9375 14.507812 14.550781-1.582031c3.566406-.386719 7.160156-.582031 10.6875-.582031 53.828125 0 97.621094 43.792969 97.621094 97.621094s-43.792969 97.621094-97.621094 97.621094v30c70.371094 0 127.621094-57.25 127.621094-127.621094 0-70.367188-57.238281-127.613282-127.601562-127.621094zm0 0"/><path d="m195.601562 332.878906c-6.203124-2.742187-13.050781-4.277344-20.253906-4.277344-27.707031 0-50.25 22.542969-50.25 50.25 0 27.710938 22.542969 50.25 50.25 50.25 27.679688 0 50.203125-22.492187 50.25-50.160156h.003906v-78.070312l104.886719-31.519532v35.164063c-6.199219-2.742187-13.046875-4.277344-20.25-4.277344-27.710937 0-50.253906 22.542969-50.253906 50.25 0 27.710938 22.542969 50.253907 50.253906 50.253907 27.628907 0 50.117188-22.417969 50.242188-50.015626h.007812v-176.300781l-164.886719 49.546875zm-20.253906 66.222656c-11.164062 0-20.25-9.085937-20.25-20.25 0-11.167968 9.085938-20.25 20.25-20.25 11.167969 0 20.253906 9.082032 20.253906 20.25 0 11.164063-9.085937 20.25-20.253906 20.25zm134.890625-28.363281c-11.167969 0-20.253906-9.082031-20.253906-20.25 0-11.164062 9.085937-20.25 20.253906-20.25 11.164063 0 20.25 9.085938 20.25 20.25 0 11.167969-9.085937 20.25-20.25 20.25zm20.25-155.972656v23.257813l-104.886719 31.523437v-23.261719zm0 0"/></svg>