<svg height="511pt" viewBox="-50 1 511 511.999" width="511pt" xmlns="http://www.w3.org/2000/svg"><path d="m327.167969 0h-77.738281v168.371094h61.066406v73.292968c0 22.324219 14.589844 41.296876 34.726562 47.914063-5.898437 32.304687-34.234375 56.875-68.21875 56.875h-3.828125c-27.664062 0-52.15625 13.78125-67.023437 34.824219-14.863282-21.042969-39.355469-34.824219-67.019532-34.824219h-3.832031c-34.03125 0-62.402343-24.644531-68.242187-57.023437 19.914062-6.742188 34.296875-25.601563 34.296875-47.765626v-73.292968h61.070312v-168.371094h-77.742187c-46.417969 0-84.183594 37.765625-84.183594 84.183594v157.480468c0 22.890626 15.335938 42.253907 36.265625 48.386719 6.375 48.695313 48.132813 86.414063 98.535156 86.414063h3.828125c28.683594 0 52.015625 23.332031 52.015625 52.015625v83.519531h30.015625v-83.519531c0-28.683594 23.332032-52.015625 52.015625-52.015625h3.828125c50.449219 0 92.238282-37.789063 98.554688-86.546875 20.691406-6.285157 35.792968-25.535157 35.792968-48.253907v-157.480468c0-46.417969-37.765624-84.183594-84.183593-84.183594zm-194.757813 138.355469h-31.054687v-108.34375h31.054687zm-61.070312-106.675781v105.011718c-23.4375-5.960937-40.828125-27.238281-40.828125-52.507812 0-25.265625 17.390625-46.542969 40.828125-52.503906zm-40.828125 116.875c11.425781 9.632812 25.433593 16.285156 40.828125 18.746093v74.363281c0 11.257813-9.15625 20.414063-20.414063 20.414063-11.253906 0-20.414062-9.15625-20.414062-20.414063zm350.828125-64.371094c0 25.269531-17.390625 46.546875-40.828125 52.503906v-105.007812c23.4375 5.960937 40.828125 27.238281 40.828125 52.503906zm-101.898438-54.171875h31.054688v108.34375h-31.054688zm81.484375 232.066406c-11.257812 0-20.414062-9.15625-20.414062-20.414063v-74.363281c15.394531-2.460937 29.402343-9.113281 40.828125-18.746093v93.109374c0 11.257813-9.15625 20.414063-20.414063 20.414063zm0 0"/></svg>