<svg height="512pt" viewBox="0 -41 512 511" width="512pt" xmlns="http://www.w3.org/2000/svg"><path d="m192.699219 72.828125c-27.578125 0-50.015625 22.4375-50.015625 50.019531 0 27.578125 22.4375 50.015625 50.015625 50.015625 27.582031 0 50.019531-22.4375 50.019531-50.015625 0-27.582031-22.4375-50.019531-50.019531-50.019531zm0 70.03125c-11.035157 0-20.015625-8.976563-20.015625-20.015625 0-11.035156 8.980468-20.015625 20.015625-20.015625 11.039062 0 20.019531 8.980469 20.019531 20.015625 0 11.039062-8.980469 20.015625-20.019531 20.015625zm0 0"/><path d="m512 200.339844h-224.714844c17.335938-21.117188 27.761719-48.109375 27.761719-77.496094 0-67.460938-54.886719-122.34375-122.347656-122.34375-67.460938 0-122.34375 54.882812-122.34375 122.34375 0 29.386719 10.425781 56.378906 27.757812 77.496094h-98.113281v205.351562h29.667969v24.472656h30v-24.472656h392.664062v24.472656h30v-24.472656h29.667969zm-411.644531-77.496094c0-50.917969 41.425781-92.34375 92.34375-92.34375 50.921875 0 92.347656 41.425781 92.347656 92.34375 0 32.445312-16.832031 61.023438-42.210937 77.496094h-100.269532c-25.378906-16.472656-42.210937-45.050782-42.210937-77.496094zm-70.355469 107.496094h452v145.351562h-452zm0 0"/><path d="m64 350.078125h259.402344v-92.636719h-259.402344zm30-62.636719h199.402344v32.636719h-199.402344zm0 0"/><path d="m416.480469 288.097656h29.835937v29.835938h-29.835937zm0 0"/><path d="m353.480469 288.097656h29.835937v29.835938h-29.835937zm0 0"/></svg>