<svg height="512pt" viewBox="0 0 512 512" width="512pt" xmlns="http://www.w3.org/2000/svg"><path d="m512 77.953125-77.953125-77.953125-42.292969 42.292969-8.699218-8.699219-130.007813 130.011719 8.695313 8.699219-261.742188 261.742187 77.953125 77.953125 261.746094-261.742188 8.34375 8.34375 130.007812-130.011718-8.34375-8.34375zm-77.953125-35.535156 35.535156 35.535156-21.082031 21.085937-35.539062-35.539062zm-391.628906 391.628906 28.75-28.753906 35.539062 35.539062-28.753906 28.75zm85.496093-14.425781-35.535156-35.535156 190.570313-190.574219 35.539062 35.539062zm220.128907-203.4375-52.578125-52.578125 87.589844-87.59375 52.578124 52.578125zm0 0"/><path d="m253.675781 237.199219 21.117188-21.117188 21.121093 21.117188-21.121093 21.121093zm0 0"/><path d="m365.589844 124.9375 21.121094-21.121094 21.117187 21.121094-21.117187 21.117188zm0 0"/><path d="m208.820312 282.054688 21.121094-21.117188 21.117188 21.117188-21.117188 21.121093zm0 0"/><path d="m163.964844 326.910156 21.121094-21.117187 21.117187 21.117187-21.117187 21.121094zm0 0"/><path d="m119.109375 371.765625 21.121094-21.121094 21.117187 21.121094-21.117187 21.121094zm0 0"/></svg>