<svg height="512pt" viewBox="0 -48 512 512" width="512pt" xmlns="http://www.w3.org/2000/svg"><path d="m253.75 263.105469c-7.261719-3.628907-15.441406-5.683594-24.097656-5.683594-29.828125 0-54.097656 24.269531-54.097656 54.097656 0 29.832031 24.269531 54.097657 54.097656 54.097657 29.796875 0 54.042968-24.214844 54.09375-54h.003906v-141.386719c13.34375 5.8125 22.695312 19.125 22.695312 34.582031v14.539062h30v-14.539062c0-37.328125-30.367187-67.695312-67.695312-67.695312h-15zm-24.097656 72.511719c-13.285156 0-24.097656-10.808594-24.097656-24.097657 0-13.285156 10.8125-24.097656 24.097656-24.097656 13.289062 0 24.097656 10.8125 24.097656 24.097656 0 13.289063-10.808594 24.097657-24.097656 24.097657zm0 0"/><path d="m242.78125 18-10.535156-18h-232.246094v416.960938h512v-398.960938zm239.21875 368.960938h-452v-356.960938h185.046875l47.996094 82h218.957031zm-201.757812-304.960938-19.898438-34h221.65625v34zm0 0"/></svg>