<svg height="512pt" viewBox="-18 0 512 512" width="512pt" xmlns="http://www.w3.org/2000/svg"><path d="m389.476562 0v26.414062l-59.503906 43.902344c-47.003906 34.675782-113.753906 55.46875-183.160156 57.054688h-30.726562c-64.011719 0-116.085938 52.074218-116.085938 116.085937 0 41.617188 22.019531 78.183594 55.011719 98.675781v76.472657h-28.410157v93.394531h335.152344v-93.394531h-28.40625v-89.066407h-93.78125v-20.800781c0-23.484375-19.105468-42.589843-42.59375-42.589843h-77.042968c-13.1875 0-23.917969-10.730469-23.917969-23.914063 0-13.1875 10.730469-23.917969 23.917969-23.917969h26.886718c69.402344 1.585938 136.15625 22.378906 183.160156 57.058594l59.5 43.898438v25.074218h86.867188v-344.347656zm-57.722656 482h-275.152344v-33.394531h275.152344zm-28.40625-63.394531h-218.335937v-59.066407h218.335937zm-237.335937-176.371094c0 29.726563 24.1875 53.914063 53.917969 53.914063h77.042968c6.945313 0 12.59375 5.648437 12.59375 12.589843v20.800781h-93.480468c-47.46875 0-86.085938-38.613281-86.085938-86.082031s38.617188-86.085937 86.085938-86.085937h15.941406v30.945312h-12.097656c-29.730469 0-53.917969 24.1875-53.917969 53.917969zm281.773437 9c-26.164062-19.304687-57.03125-34.589844-91.753906-45.4375-29.929688-9.347656-61.488281-15.015625-94.003906-16.890625v-32.128906c32.515625-1.875 64.074218-7.539063 94.003906-16.886719 34.722656-10.847656 65.589844-26.132813 91.753906-45.4375l41.691406-30.757813v218.292969zm98.558594 63.113281h-26.867188v-284.347656h26.867188zm0 0"/></svg>