<svg height="512pt" viewBox="0 -32 512 512" width="512pt" xmlns="http://www.w3.org/2000/svg"><path d="m256.113281 85.757812c-93.871093 0-170.242187 76.371094-170.242187 170.242188s76.371094 170.242188 170.242187 170.242188c93.871094 0 170.242188-76.371094 170.242188-170.242188s-76.371094-170.242188-170.242188-170.242188zm0 310.484376c-77.328125 0-140.242187-62.914063-140.242187-140.242188s62.914062-140.242188 140.242187-140.242188c77.332031 0 140.242188 62.914063 140.242188 140.242188s-62.910157 140.242188-140.242188 140.242188zm0 0"/><path d="m256.113281 144.25c-61.617187 0-111.75 50.132812-111.75 111.75s50.132813 111.75 111.75 111.75c61.621094 0 111.75-50.132812 111.75-111.75s-50.128906-111.75-111.75-111.75zm0 193.5c-45.078125 0-81.75-36.671875-81.75-81.75 0-39.953125 28.816407-73.28125 66.75-80.347656v50.847656h30v-50.847656c37.933594 7.066406 66.75 40.394531 66.75 80.347656 0 45.078125-36.671875 81.75-81.75 81.75zm0 0"/><path d="m241 0h30v53.5h-30zm0 0"/><path d="m64.371094 85.589844 21.214844-21.214844 37.828124 37.832031-21.210937 21.210938zm0 0"/><path d="m388.578125 409.796875 21.210937-21.214844 37.832032 37.832031-21.214844 21.210938zm0 0"/><path d="m0 241h53.5v30h-53.5zm0 0"/><path d="m458.5 241h53.5v30h-53.5zm0 0"/><path d="m64.371094 426.410156 37.828125-37.828125 21.214843 21.210938-37.828124 37.832031zm0 0"/><path d="m388.582031 102.207031 37.828125-37.832031 21.210938 21.214844-37.828125 37.828125zm0 0"/></svg>