<svg height="512pt" viewBox="0 0 512 512" width="512pt" xmlns="http://www.w3.org/2000/svg"><path d="m399.75 0v30.417969h-149.75v-30.417969h-112.25v30.417969h-137.75v451.164062h137.75v30.417969h112.25v-30.417969h149.75v30.417969h112.25v-512zm-60.875 60.417969v391.164062h-29.875v-391.164062zm-308.875 391.164062v-391.164062h107.75v31.582031h-56.75v30h56.75v30h-56.75v30h56.75v30h-56.75v30h56.75v30h-56.75v30h56.75v30h-56.75v30h56.75v30h-56.75v30h56.75v29.582031zm190 30.417969h-52.25v-452h52.25zm30-421.582031h29v391.164062h-29zm118.875 391.164062v-391.164062h30.875v391.164062zm113.125 30.417969h-52.25v-452h52.25zm0 0"/></svg>