<svg height="512pt" viewBox="-8 0 511 512" width="512pt" xmlns="http://www.w3.org/2000/svg"><path d="m495.3125 155.464844v-67.15625c0-25.164063-20.476562-45.640625-45.644531-45.640625h-71.546875v15.667969h-41.453125v-58.335938h-177.523438v58.335938h-41.453125v-15.667969h-71.550781c-25.164063 0-45.640625 20.476562-45.640625 45.640625v67.15625h16.574219v242.15625h-16.574219v68.734375c0 25.167969 20.476562 45.644531 45.640625 45.644531h71.550781v-15.667969h260.429688v15.667969h71.550781c25.164063 0 45.640625-20.476562 45.640625-45.644531v-68.734375h-16.578125v-242.15625zm-87.191406-82.796875h41.550781c8.625 0 15.640625 7.015625 15.640625 15.640625v37.15625h-57.191406zm-30 324.953125v13.421875h-260.429688v-13.421875h-12.117187v-145.285156h284.664062v145.285156zm12.117187-175.285156h-284.664062v-66.871094h12.117187v-11.839844h260.429688v11.839844h12.117187zm-201.09375-192.335938h117.523438v28.335938h-117.523438zm188.976563 58.335938v25.289062h-260.429688v-25.289062zm-347.621094-.027344c0-8.625 7.019531-15.640625 15.644531-15.640625h41.546875v52.796875h-57.191406zm16.574219 67.15625h28.5v242.15625h-28.5zm40.617187 326.535156h-41.550781c-8.625 0-15.640625-7.019531-15.640625-15.644531v-38.734375h57.1875v54.378906zm30-15.667969v-25.289062h260.429688v25.289062zm347.621094.023438c0 8.625-7.019531 15.644531-15.644531 15.644531h-41.546875v-54.378906h57.1875v38.734375zm-16.578125-68.734375h-28.496094v-242.15625h28.496094zm0 0"/><path d="m147.574219 165.667969h30.332031v30.332031h-30.332031zm0 0"/><path d="m232.738281 165.667969h30.332031v30.332031h-30.332031zm0 0"/><path d="m317.90625 165.667969h30.332031v30.332031h-30.332031zm0 0"/></svg>