<svg height="512pt" viewBox="0 0 512 512" width="512pt" xmlns="http://www.w3.org/2000/svg"><path d="m512 72.058594-72.058594-72.058594-18.597656 18.597656-17.46875-17.46875-21.21875 21.21875 17.46875 17.46875-14.191406 14.191406-17.46875-17.46875-21.222656 21.21875 17.472656 17.46875-136.171875 136.171876c-59.222657-29.144532-132.984375-19.128907-182.191407 30.078124-61.800781 61.800782-61.800781 162.363282 0 224.171876 30.902344 30.902343 71.496094 46.351562 112.085938 46.351562 40.59375 0 81.183594-15.449219 112.085938-46.351562 49.207031-49.207032 59.21875-122.964844 30.070312-182.1875l136.179688-136.175782 17.46875 17.46875 21.21875-21.21875-17.46875-17.46875 14.191406-14.191406 17.46875 17.46875 21.222656-21.21875-17.472656-17.46875zm-42.441406 0-56.734375 56.734375-29.617188-29.617188 56.734375-56.738281zm-225.570313 225.570312c-3.78125-5.78125-8.207031-11.261718-13.28125-16.335937s-10.554687-9.5-16.335937-13.28125l147.613281-147.617188 29.621094 29.617188zm-34.5 4.882813c28.148438 28.148437 28.148438 73.949219 0 102.097656-28.148437 28.148437-73.949219 28.148437-102.097656 0s-28.148437-73.949219 0-102.097656c14.074219-14.074219 32.558594-21.109375 51.050781-21.109375 18.480469 0 36.972656 7.039062 51.046875 21.109375zm39.816407 141.914062c-50.105469 50.105469-131.628907 50.105469-181.730469 0-50.105469-50.101562-50.105469-131.628906 0-181.730469 25.050781-25.050781 57.957031-37.578124 90.863281-37.578124 16.101562 0 32.195312 3.011718 47.375 9.011718l-20.773438 20.773438c-34.140624-9.144532-72.132812-.347656-98.871093 26.390625-39.847657 39.847656-39.847657 104.6875 0 144.535156 19.925781 19.925781 46.097656 29.886719 72.269531 29.886719s52.34375-9.960938 72.269531-29.886719c26.738281-26.734375 35.53125-64.726563 26.390625-98.867187l20.753906-20.757813c18.25 46.207031 8.757813 100.917969-28.546874 138.222656zm0 0"/><path d="m110.804688 360.601562 21.21875-21.21875 40.589843 40.585938-21.21875 21.222656zm0 0"/></svg>