<svg height="511pt" viewBox="1 -147 511.999 511" width="511pt" xmlns="http://www.w3.org/2000/svg"><path d="m267.101562.5 6.730469 69.453125h-35.664062l6.730469-69.453125h-244.898438l21.054688 217.300781h202.785156l5.402344-55.734375h53.515624l5.402344 55.734375h202.78125l21.058594-217.300781zm211.8125 30.035156-3.074218 31.722656h-172.574219l-3.074219-31.722656zm-67.417968 61.761719-8.800782 95.46875h-25.828124l-8.835938-95.46875zm-199.6875-61.761719-3.074219 31.722656h-172.574219l-3.074218-31.722656zm-67.417969 61.761719-8.800781 95.46875h-25.824219l-8.835937-95.46875zm-105.320313 0h31.691407l8.835937 95.46875h-31.273437zm126.683594 95.46875 8.800782-95.46875h31.269531l-9.253907 95.46875zm66.398438-55.734375 3.105468-32.042969h41.484376l3.105468 32.042969zm74.023437-39.734375h31.691407l8.835937 95.46875h-31.273437zm126.683594 95.46875 8.800781-95.46875h31.269532l-9.253907 95.46875zm0 0"/></svg>