<svg height="512pt" viewBox="-41 0 512 512" width="512pt" xmlns="http://www.w3.org/2000/svg"><path d="m430.027344 193.460938v-16.089844c0-39.4375-32.082032-71.519532-71.519532-71.519532h-71.625c-7.160156-27.121093-29.289062-48.222656-56.984374-53.875v-51.976562h-29.765626v51.976562c-27.695312 5.652344-49.828124 26.753907-56.988281 53.871094h-71.625c-39.433593 0-71.519531 32.085938-71.519531 71.519532v16.09375h200.132812v28.699218h-200.132812v16.09375c0 39.4375 32.085938 71.519532 71.519531 71.519532h71.625c7.160157 27.121093 29.292969 48.222656 56.984375 53.875v148.351562h29.769532v-148.351562c27.691406-5.652344 49.824218-26.753907 56.984374-53.875h71.625c39.433594 0 71.519532-32.082032 71.519532-71.519532v-16.09375h-200.128906v-28.699218zm-215.011719 141.917968c-17.796875 0-33.179687-10.488281-40.316406-25.605468h80.628906c-7.132813 15.117187-22.519531 25.605468-40.3125 25.605468zm143.492187-55.371094h-286.988281c-18.234375 0-33.777343-11.75-39.453125-28.078124h365.894532c-5.675782 16.328124-21.21875 28.078124-39.453126 28.078124zm-143.492187-199.761718c17.792969 0 33.179687 10.488281 40.3125 25.605468h-80.628906c7.136719-15.117187 22.519531-25.605468 40.316406-25.605468zm-143.496094 55.371094h286.988281c18.234376 0 33.777344 11.75 39.453126 28.078124h-365.894532c5.675782-16.328124 21.21875-28.078124 39.453125-28.078124zm0 0"/></svg>