<svg height="512pt" viewBox="0 0 512 512" width="512pt" xmlns="http://www.w3.org/2000/svg"><path d="m512 220.925781v-99.152343h-512v99.152343h26.28125v191.925781h-26.28125v99.148438h512v-99.148438h-26.28125v-191.925781zm-482-69.152343h452v39.152343h-452zm327.332031 126.28125v77.125h-18v30h18v27.671874h-202.664062v-27.671874h18v-30h-18v-77.125h18v-30h-18v-27.128907h202.664062v27.128907h-18v30zm-301.050781-57.128907h68.386719v27.128907h-18v30h18v77.125h-18v30h18v27.671874h-68.386719zm425.71875 261.074219h-452v-39.148438h452zm-26.28125-69.148438h-68.386719v-27.671874h18v-30h-18v-77.125h18v-30h-18v-27.128907h68.386719zm0 0"/><path d="m101.125 97.246094c21.578125 0 39.90625-14.128906 46.246094-33.621094h297.128906v-30h-297.128906c-6.339844-19.492188-24.667969-33.625-46.246094-33.625-26.8125 0-48.625 21.8125-48.625 48.625 0 26.808594 21.8125 48.621094 48.625 48.621094zm0-67.246094c10.269531 0 18.621094 8.355469 18.621094 18.625s-8.351563 18.621094-18.621094 18.621094-18.625-8.351563-18.625-18.621094 8.355469-18.625 18.625-18.625zm0 0"/></svg>