<svg height="512pt" viewBox="0 0 512 512" width="512pt" xmlns="http://www.w3.org/2000/svg"><path d="m512 63h-30.183594v-63h-451.632812v63h-30.183594v100.246094h30.183594v348.753906h114.328125v-50h84.324219v-50h84.328124v-50h84.324219v-50h84.328125v-148.753906h30.183594zm-60.183594-33v33h-54.328125v-33zm-84.328125 0v33h-54.324219v-33zm-84.324219 0v33h-54.328124v-33zm-84.328124 0v33h-54.324219v-33zm-138.652344 0h54.328125v33h-54.328125zm54.328125 452h-54.328125v-318.753906h54.328125zm84.324219-50h-54.324219v-268.753906h54.324219zm84.328124-50h-54.328124v-218.753906h54.328124zm84.324219-50h-54.324219v-168.753906h54.324219zm84.328125-50h-54.328125v-118.753906h54.328125zm30.183594-148.753906h-452v-40.246094h452zm0 0"/></svg>