<svg height="512pt" viewBox="0 -122 512 512" width="512pt" xmlns="http://www.w3.org/2000/svg"><path d="m0 0v268.488281h512v-268.488281zm482 30v62.996094h-452v-62.996094zm-58.945312 208.488281h-31.222657v-50.421875h31.222657zm-61.222657 0h-30.417969v-50.421875h30.417969zm-60.414062 0h-30.417969v-50.421875h30.417969zm-60.417969 0h-30.417969v-50.421875h30.417969zm-60.417969 0h-30.417969v-50.421875h30.417969zm-60.414062 0h-31.222657v-50.421875h31.222657zm332.886719 0v-80.421875h-394.109376v80.421875h-28.945312v-115.492187h452v115.492187zm0 0"/><path d="m71.804688 45.996094h29.613281v29.613281h-29.613281zm0 0"/><path d="m410.582031 45.996094h29.613281v29.613281h-29.613281zm0 0"/></svg>