<svg height="512pt" viewBox="-1 -32 512.00004 512" width="512pt" xmlns="http://www.w3.org/2000/svg"><path d="m511.386719 98.75c-3.324219-34.921875-19.738281-63.917969-46.214844-81.636719-26.480469-17.722656-59.542969-21.84375-93.09375-11.597656-32.460937 9.90625-61.625 32.230469-82.121094 62.855469-20.496093 30.625-30.015625 66.097656-26.796875 99.882812 1.554688 16.34375 5.976563 31.386719 12.957032 44.582032l-20.117188 30.058593-20.117188-30.058593c6.980469-13.195313 11.402344-28.238282 12.957032-44.582032 3.21875-33.785156-6.300782-69.257812-26.796875-99.882812-20.496094-30.625-49.660157-52.949219-82.121094-62.855469-33.550781-10.246094-66.613281-6.125-93.09375 11.597656-26.476563 17.71875-42.890625 46.714844-46.214844 81.636719-3.214843 33.789062 6.300781 69.261719 26.796875 99.882812 20.496094 30.625 49.660156 52.949219 82.121094 62.859376 12.078125 3.6875 24.09375 5.511718 35.761719 5.511718 3.496093 0 6.957031-.175781 10.382812-.503906l42.261719 63.144531-28.949219 43.257813c-7.339843 10.964844-10.160156 24.042968-7.949219 36.828125 2.261719 13.054687 9.464844 24.234375 20.289063 31.480469 7.835937 5.242187 16.851563 7.949218 26.136719 7.949218 3.546875 0 7.132812-.394531 10.707031-1.195312 12.660156-2.828125 23.675781-10.425782 31.011719-21.390625l6.8125-10.179688 6.886718 10.289063c9.773438 14.601562 25.714844 22.5625 41.714844 22.5625 9.066406 0 18.15625-2.554688 26.15625-7.90625 10.824219-7.25 18.03125-18.433594 20.285156-31.492188 2.210938-12.789062-.617187-25.871094-7.957031-36.839844l-29.023437-43.363281 42.261718-63.148437c3.425782.328125 6.886719.507812 10.382813.507812 11.667969 0 23.683594-1.828125 35.761719-5.515625 32.460937-9.910156 61.625-32.230469 82.125-62.855469 20.496094-30.621093 30.011718-66.09375 26.796875-99.882812zm-103.753907-68.738281c14.605469 0 28.664063 3.867187 40.855469 12.027343 28.3125 18.949219 39.058594 56.035157 30.871094 93.992188l-7.273437-12.808594-35.953126-4.398437-18.023437-31.722657-35.914063-4.394531-17.757812-31.527343-14.605469-1.84375c18.203125-12.546876 38.480469-19.324219 57.800781-19.324219zm-377.160156 71.582031c2.453125-25.789062 14.1875-46.9375 33.039063-59.554688 12.191406-8.160156 26.246093-12.027343 40.855469-12.027343 19.316406 0 39.597656 6.777343 57.800781 19.324219l-14.605469 1.84375-17.757812 31.527343-35.914063 4.394531-18.023437 31.722657-35.953126 4.398437-7.289062 12.832032c-2.472656-11.511719-3.230469-23.128907-2.152344-34.460938zm16.003906 70.804688 12.0625-21.234376 35.949219-4.398437 18.023438-31.726563 35.988281-4.402343 17.789062-31.589844 24.21875-3.054687c2.296876 2.898437 4.507813 5.917968 6.609376 9.058593 3.105468 4.636719 5.898437 9.402344 8.375 14.253907l-23.714844 2.992187-17.757813 31.527344-35.917969 4.394531-18.023437 31.726562-35.949219 4.398438-11.808594 20.78125c-3.542968-4.140625-6.882812-8.539062-9.984374-13.171875-2.097657-3.132813-4.050782-6.320313-5.859376-9.554687zm71.8125 60.40625c-11.761718-3.589844-23.011718-9.285157-33.355468-16.765626l7.816406-13.757812 35.953125-4.398438 18.019531-31.726562 35.988282-4.402344 17.789062-31.589844 15.703125-1.976562c2.96875 12.414062 3.945313 24.984375 2.777344 37.226562-2.453125 25.785157-14.1875 46.9375-33.039063 59.550782-18.851562 12.621094-42.878906 15.402344-67.652344 7.839844zm68.230469 25.847656c5.585938-2.40625 10.96875-5.324219 16.105469-8.761719 5.132812-3.433594 9.882812-7.300781 14.242188-11.546875l21.085937 31.511719-21.96875 32.824219zm131.636719 131.039062c3.039062 4.539063 4.222656 9.886719 3.328125 15.050782-.84375 4.890624-3.476563 9.035156-7.414063 11.671874-8.367187 5.597657-20.144531 2.722657-26.257812-6.410156l-13.765625-20.570312 21.96875-32.828125zm-93.894531 20.203125c-3.035157 4.53125-7.519531 7.65625-12.632813 8.800781-4.84375 1.082032-9.675781.226563-13.617187-2.410156-3.9375-2.636718-6.570313-6.777344-7.417969-11.667968-.890625-5.160157.289062-10.5 3.320312-15.03125l101.21875-151.238282c4.359376 4.242188 9.109376 8.109375 14.242188 11.546875 5.136719 3.4375 10.519531 6.351563 16.105469 8.761719zm169.449219-177.089843c-24.773438 7.5625-48.800782 4.777343-67.652344-7.839844-18.851563-12.613282-30.585938-33.765625-33.039063-59.550782-1.167969-12.242187-.191406-24.8125 2.777344-37.226562l15.703125 1.976562 17.789062 31.589844 35.988282 4.402344 18.019531 31.726562 35.953125 4.398438 7.816406 13.757812c-10.34375 7.480469-21.59375 13.175782-33.355468 16.765626zm65.953124-50.851563c-3.101562 4.632813-6.441406 9.03125-9.984374 13.171875l-11.808594-20.78125-35.949219-4.398438-18.023437-31.726562-35.917969-4.394531-17.757813-31.527344-23.714844-2.992187c2.476563-4.851563 5.269532-9.617188 8.371094-14.253907 2.105469-3.140625 4.316406-6.160156 6.609375-9.058593l24.21875 3.054687 17.792969 31.589844 35.988281 4.402343 18.019531 31.726563 35.953126 4.398437 12.0625 21.230469c-1.804688 3.222657-3.753907 6.414063-5.859376 9.558594zm0 0"/></svg>