<svg height="512pt" viewBox="-53 0 512 512" width="512pt" xmlns="http://www.w3.org/2000/svg"><path d="m359.917969 205.246094c25.15625 0 45.621093-20.464844 45.621093-45.621094s-20.464843-45.625-45.621093-45.625c-25.160157 0-45.625 20.46875-45.625 45.625 0 6.320312 1.292969 12.347656 3.628906 17.824219l-21.109375 19.996093-50.484375-197.445312h-122.574219l-123.753906 484h50.871094v28h30v-28h208.339844v28h30v-28h50.871093l-64.761719-253.285156 32.765626-31.039063c6.488281 3.550781 13.929687 5.570313 21.832031 5.570313zm-88.03125 15.816406-71.847657 68.0625v-38.230469h16.972657v-30h-16.972657v-26.074219h16.972657v-30h-16.972657v-26.078124h16.972657v-30h-16.972657v-26.074219h16.972657v-30h-16.972657v-22.667969h22.996094zm-124.839844-191.0625h22.992187v22.667969h-16.96875v30h16.972657v26.074219h-16.972657v30h16.972657v26.078124h-16.972657v30h16.972657v26.074219h-16.972657v30h16.972657v61.265625h-95.140625zm-108.410156 424 28.59375-111.839844h235.621093l28.59375 111.839844zm256.542969-141.839844h-75.828126l61.042969-57.832031zm64.738281-168.160156c8.613281 0 15.621093 7.007812 15.621093 15.625 0 8.613281-7.007812 15.621094-15.621093 15.621094-8.617188 0-15.625-7.007813-15.625-15.621094 0-8.617188 7.007812-15.625 15.625-15.625zm0 0"/></svg>