<svg height="512pt" viewBox="-68 0 512 512" width="512pt" xmlns="http://www.w3.org/2000/svg"><path d="m302.636719 221.15625c-40.28125 0-73.054688 32.773438-73.054688 73.054688v137.285156c0 27.847656-22.65625 50.503906-50.503906 50.503906s-50.503906-22.65625-50.503906-50.503906v-16.769532c29.03125-6.804687 50.722656-32.890624 50.722656-63.957031v-144.59375c28.949219-20.605469 47.867187-54.429687 47.867187-92.59375 0-62.628906-50.953124-113.582031-113.582031-113.582031-62.628906 0-113.582031 50.953125-113.582031 113.582031 0 38.164063 18.917969 71.988281 47.867188 92.59375v144.589844c0 31.070313 21.683593 57.152344 50.707031 63.957031v16.773438c0 44.390625 36.113281 80.503906 80.503906 80.503906s80.503906-36.113281 80.503906-80.503906v-137.285156c0-23.738282 19.3125-43.054688 43.054688-43.054688 23.738281 0 43.050781 19.3125 43.050781 43.054688v88.789062h30v-88.789062c0-40.28125-32.769531-73.054688-73.050781-73.054688zm-189.054688-191.15625c40.964844 0 75.117188 29.632812 82.207031 68.582031h-164.414062c7.089844-38.949219 41.242188-68.582031 82.207031-68.582031zm-82.207031 98.582031h164.414062c-7.089843 38.949219-41.242187 68.582031-82.207031 68.582031-40.964843 0-75.117187-29.632812-82.207031-68.582031zm46.492188 222.183594v-129.359375c11.238281 3.730469 23.242187 5.757812 35.714843 5.757812 12.472657 0 24.480469-2.027343 35.714844-5.757812v129.359375c0 19.6875-16.027344 35.707031-35.722656 35.707031-19.6875 0-35.707031-16.019531-35.707031-35.707031zm0 0"/></svg>