<svg height="512pt" viewBox="-13 0 511 512" width="512pt" xmlns="http://www.w3.org/2000/svg"><path d="m67.351562 221.875h213.402344v-161.996094h-213.402344zm30-131.996094h153.402344v101.996094h-153.402344zm0 0"/><path d="m174.050781 247.480469c-57.75 0-104.738281 46.988281-104.738281 104.738281 0 57.753906 46.988281 104.738281 104.738281 104.738281 57.753907 0 104.738281-46.984375 104.738281-104.738281 0-57.75-46.984374-104.738281-104.738281-104.738281zm0 179.476562c-41.210937 0-74.738281-33.527343-74.738281-74.738281 0-41.207031 33.527344-74.734375 74.738281-74.734375 41.210938 0 74.738281 33.527344 74.738281 74.734375 0 41.210938-33.527343 74.738281-74.738281 74.738281zm0 0"/><path d="m174.050781 305.332031c-25.851562 0-46.886719 21.035157-46.886719 46.886719s21.035157 46.886719 46.886719 46.886719c25.851563 0 46.886719-21.035157 46.886719-46.886719s-21.035156-46.886719-46.886719-46.886719zm0 63.773438c-9.3125 0-16.886719-7.574219-16.886719-16.886719s7.574219-16.886719 16.886719-16.886719 16.886719 7.574219 16.886719 16.886719-7.574219 16.886719-16.886719 16.886719zm0 0"/><path d="m484.910156 109h-54.425781c-30.328125 0-55 24.671875-55 55v94.546875c0 19.085937 12.171875 35.375 29.15625 41.53125v111.566406c0 15.726563-12.792969 28.519531-28.519531 28.519531-15.726563 0-28.519532-12.792968-28.519532-28.519531v-411.644531h-347.101562v512h347.101562v-49.28125c8.445313 4.734375 18.167969 7.445312 28.519532 7.445312 32.269531 0 58.519531-26.25 58.519531-58.519531v-111.570312c16.988281-6.152344 29.15625-22.445313 29.15625-41.527344v-36.242187h21.113281zm-167.308594 373h-287.097656v-452h287.097656zm87.882813-318c0-13.785156 11.214844-25 25-25h24.425781v53.304688h-24.425781c-13.785156 0-25-11.214844-25-25zm28.316406 94.546875c0 7.804687-6.351562 14.15625-14.160156 14.15625-7.804687 0-14.15625-6.351563-14.15625-14.15625v-42.277344c7.507813 3.847657 16 6.035157 25 6.035157h3.316406zm0 0"/></svg>