<svg height="512pt" viewBox="0 -46 512 511" width="512pt" xmlns="http://www.w3.org/2000/svg"><path d="m484.332031 115.101562v-18.835937c0-26.46875-21.53125-48-48-48-15.507812 0-29.316406 7.402344-38.097656 18.851563l-372.59375-66.617188-5.28125 29.53125 367.984375 65.792969c0 .148437-.011719.292969-.011719.441406v18.832031h-388.332031v303.667969h512v-303.664063zm-66-18.835937c0-9.925781 8.074219-18 18-18s18 8.074219 18 18v18.835937h-36zm63.667969 292.5h-452v-243.664063h452zm0 0"/><path d="m159.28125 370.035156c56.855469 0 103.105469-46.25 103.105469-103.101562 0-56.855469-46.25-103.105469-103.105469-103.105469-56.851562 0-103.101562 46.253906-103.101562 103.105469 0 56.851562 46.253906 103.101562 103.101562 103.101562zm0-176.207031c40.3125 0 73.105469 32.792969 73.105469 73.105469 0 40.308594-32.792969 73.101562-73.105469 73.101562-40.308594 0-73.101562-32.792968-73.101562-73.101562s32.792968-73.105469 73.101562-73.105469zm0 0"/><path d="m451.332031 171.265625h-169.332031v88.667969h169.332031zm-30 58.667969h-109.332031v-28.667969h109.332031zm0 0"/><path d="m316.667969 282.265625h100v30h-100zm0 0"/><path d="m316.667969 333.367188h100v30h-100zm0 0"/></svg>