<svg height="512pt" viewBox="-89 0 512 512" width="512pt" xmlns="http://www.w3.org/2000/svg"><path d="m141.003906 364.441406c29.808594 0 54.0625-24.226562 54.117188-54.023437v-141.441407c13.347656 5.8125 22.703125 19.128907 22.703125 34.59375v14.546876h30.011719v-14.546876c0-37.34375-30.378907-67.722656-67.71875-67.722656h-15.007813v126.042969c-7.265625-3.632813-15.449219-5.6875-24.105469-5.6875-29.84375 0-54.121094 24.277344-54.121094 54.121094 0 29.839843 24.277344 54.117187 54.121094 54.117187zm0-78.226562c13.292969 0 24.105469 10.8125 24.105469 24.109375 0 13.289062-10.8125 24.105469-24.105469 24.105469-13.292968 0-24.109375-10.816407-24.109375-24.105469 0-13.296875 10.816407-24.109375 24.109375-24.109375zm0 0"/><path d="m0 0v512h334.722656v-512zm304.710938 30.011719v45.660156h-274.699219v-45.660156zm0 75.675781v284.265625h-274.699219v-284.265625zm-274.699219 376.300781v-62.027343h274.699219v62.027343zm0 0"/><path d="m152.355469 436.46875h30.011719v30.011719h-30.011719zm0 0"/></svg>