<svg height="512pt" viewBox="0 0 512 512" width="512pt" xmlns="http://www.w3.org/2000/svg"><path d="m60.667969 57.332031h30v30h-30zm0 0"/><path d="m421.332031 57.332031h30v30h-30zm0 0"/><path d="m60.667969 424.667969h30v30h-30zm0 0"/><path d="m421.332031 424.667969h30v30h-30zm0 0"/><path d="m0 0v512h512v-512zm482 482h-452v-452h452zm0 0"/><path d="m256 454.667969c109.546875 0 198.667969-89.121094 198.667969-198.667969s-89.121094-198.667969-198.667969-198.667969-198.667969 89.121094-198.667969 198.667969 89.121094 198.667969 198.667969 198.667969zm0-367.335938c93.003906 0 168.667969 75.664063 168.667969 168.667969s-75.664063 168.667969-168.667969 168.667969-168.667969-75.664063-168.667969-168.667969 75.664063-168.667969 168.667969-168.667969zm0 0"/><path d="m256 395.332031c76.828125 0 139.332031-62.503906 139.332031-139.332031s-62.503906-139.332031-139.332031-139.332031-139.332031 62.503906-139.332031 139.332031 62.503906 139.332031 139.332031 139.332031zm0-248.664062c60.285156 0 109.332031 49.046875 109.332031 109.332031s-49.046875 109.332031-109.332031 109.332031-109.332031-49.046875-109.332031-109.332031 49.046875-109.332031 109.332031-109.332031zm0 0"/></svg>