<svg height="512pt" viewBox="-25 0 512 512.001" width="512pt" xmlns="http://www.w3.org/2000/svg"><path d="m426.78125 284.804688c-2.246094-1.296876-4.542969-2.457032-6.878906-3.492188 1.105468-8.28125 1.6875-16.730469 1.6875-25.3125 0-8.664062-.59375-17.1875-1.722656-25.546875 2.328124-1.035156 4.625-2.195313 6.875-3.496094 16.769531-9.6875 28.757812-25.328125 33.765624-44.035156 5.003907-18.707031 2.421876-38.246094-7.269531-55.011719-20-34.613281-64.429687-46.5-99.046875-26.496094-2.28125 1.316407-4.4375 2.761719-6.515625 4.28125-13.371093-10.347656-28.148437-18.953124-43.996093-25.476562.269531-2.535156.410156-5.109375.410156-7.71875 0-39.976562-32.523438-72.5-72.5-72.5-39.976563 0-72.5 32.523438-72.5 72.5 0 2.605469.144531 5.179688.421875 7.714844-15.992188 6.582031-30.898438 15.28125-44.359375 25.753906-2.09375-1.519531-4.273438-2.945312-6.546875-4.25-34.660157-19.917969-79.0625-7.921875-98.980469 26.742188-19.917969 34.660156-7.921875 79.0625 26.742188 98.980468 2.253906 1.296875 4.554687 2.453125 6.882812 3.480469-1.089844 8.210937-1.660156 16.578125-1.660156 25.078125 0 8.746094.609375 17.351562 1.757812 25.785156-2.328125 1.035156-4.621094 2.195313-6.875 3.5-16.753906 9.710938-28.726562 25.367188-33.707031 44.078125-4.980469 18.714844-2.375 38.25 7.335937 55.003907 13.429688 23.175781 37.8125 36.132812 62.847657 36.132812 12.328125-.003906 24.820312-3.144531 36.230469-9.761719 2.277343-1.320312 4.441406-2.761719 6.515624-4.285156 13.382813 10.328125 28.171876 18.917969 44.03125 25.421875-.269531 2.546875-.414062 5.117188-.410156 7.714844.050782 39.949218 32.5625 72.410156 72.5 72.410156h.089844c39.976562-.050781 72.460938-32.613281 72.410156-72.589844-.003906-2.605468-.160156-5.175781-.4375-7.710937 15.84375-6.542969 30.613282-15.164063 43.972656-25.527344 2.078126 1.515625 4.25 2.949219 6.53125 4.265625 11.375 6.554688 23.804688 9.667969 36.074219 9.667969 25.097657 0 49.535157-13.027344 62.941407-36.289063 19.960937-34.636718 8.019531-79.054687-26.617188-99.011718zm-25.328125-161.675782c10.964844 2.933594 20.132813 9.960938 25.8125 19.792969 5.679687 9.828125 7.191406 21.28125 4.257813 32.246094-2.785157 10.414062-9.269532 19.199219-18.332032 24.925781-8.546875-27.714844-23.285156-52.734375-42.582031-73.457031 6.179687-3.277344 12.941406-4.96875 19.789063-4.96875 3.6875 0 7.398437.484375 11.054687 1.460937zm-169.859375 292.871094c-88.226562 0-160-71.773438-160-160 0-88.222656 71.773438-160 160-160 88.222656 0 160 71.777344 160 160 0 88.226562-71.777344 160-160 160zm0-386c22.859375 0 41.550781 18.144531 42.457031 40.785156-13.65625-3.125-27.867187-4.785156-42.457031-4.785156-14.59375 0-28.804688 1.660156-42.457031 4.785156.902343-22.640625 19.59375-40.785156 42.457031-40.785156zm-195.957031 113.40625c7.851562-13.664062 22.191406-21.316406 36.921875-21.316406 6.675781 0 13.425781 1.59375 19.691406 4.890625-19.242188 20.769531-33.910156 45.824219-42.394531 73.5625-19.1875-12.0625-25.609375-37.316407-14.21875-57.136719zm26.261719 245.679688c-10.972657-2.921876-20.148438-9.941407-25.839844-19.761719-5.695313-9.820313-7.21875-21.269531-4.300782-32.242188 2.773438-10.417969 9.246094-19.210937 18.300782-24.945312 8.585937 27.707031 23.355468 52.710937 42.683594 73.414062-9.503907 5.050781-20.390626 6.316407-30.84375 3.535157zm169.972656 92.914062h-.050782c-22.839843 0-41.527343-18.109375-42.457031-40.734375 13.585938 3.09375 27.71875 4.734375 42.226563 4.734375 14.671875 0 28.960937-1.671875 42.6875-4.835938-.875 22.644532-19.546875 40.808594-42.40625 40.835938zm195.535156-113.160156c-11.433594 19.84375-36.558594 26.96875-56.644531 16.363281 19.273437-20.746094 33.980469-45.789063 42.5-73.515625 19.171875 12.085938 25.558593 37.34375 14.144531 57.152344zm0 0"/><path d="m231.59375 126.289062c-71.523438 0-129.710938 58.1875-129.710938 129.710938s58.1875 129.710938 129.710938 129.710938c71.519531 0 129.710938-58.1875 129.710938-129.710938s-58.191407-129.710938-129.710938-129.710938zm0 229.421876c-54.980469 0-99.710938-44.730469-99.710938-99.710938s44.726563-99.710938 99.710938-99.710938c54.980469 0 99.710938 44.730469 99.710938 99.710938s-44.730469 99.710938-99.710938 99.710938zm0 0"/></svg>