<svg height="512pt" viewBox="-82 0 512 512" width="512pt" xmlns="http://www.w3.org/2000/svg"><path d="m194.65625 183.132812 72.34375 125.300782c7.730469 13.386718 22.136719 21.703125 37.597656 21.703125 7.597656 0 15.09375-2.011719 21.683594-5.816407 20.726562-11.964843 27.851562-38.558593 15.886719-59.28125l-105.546875-182.808593c-2.257813-3.914063-5.039063-7.429688-8.207032-10.5 6.328126-7.589844 10.144532-17.347657 10.144532-27.980469 0-24.125-19.625-43.75-43.75-43.75-24.121094 0-43.746094 19.625-43.746094 43.75 0 10.558594 3.757812 20.253906 10.007812 27.820312-3.238281 3.113282-6.078124 6.675782-8.378906 10.660157l-146.1875 253.207031c-11.109375 19.238281-7.734375 43.492188 8.195313 58.984375 9.089843 8.835937 21.242187 13.699219 34.21875 13.699219h175.140625l24.371094 36.101562c-4.0625 6.734375-6.40625 14.617188-6.40625 23.042969 0 24.667969 20.070312 44.734375 44.738281 44.734375s44.734375-20.066406 44.734375-44.734375-20.066406-44.738281-44.734375-44.738281c-5.269531 0-10.324219.921875-15.023438 2.605468l-13.617187-20.171874c15.90625-6.441407 27.160156-22.042969 27.160156-40.234376 0-23.929687-19.46875-43.398437-43.398438-43.398437h-40.226562l-25.648438-37.992187-24.863281 16.785156 14.316407 21.207031h-50.589844zm.152344-153.132812c7.582031 0 13.75 6.167969 13.75 13.75s-6.167969 13.75-13.75 13.75c-7.582032 0-13.75-6.167969-13.75-13.75s6.171875-13.75 13.75-13.75zm106.6875 437.265625c0 8.125-6.609375 14.734375-14.734375 14.734375s-14.734375-6.609375-14.734375-14.734375 6.609375-14.738281 14.734375-14.738281 14.734375 6.613281 14.734375 14.738281zm-59.613282-115.9375c7.398438 0 13.398438 5.996094 13.398438 13.398437 0 7.398438-5.996094 13.394532-13.398438 13.394532h-1.878906l-18.09375-26.792969zm-56.167968 0 18.089844 26.792969h-154.886719c-4.933594 0-9.769531-1.773438-13.304688-5.210938-6.207031-6.035156-7.25-15.339844-3.132812-22.472656l146.195312-253.210938c3.285157-5.691406 9.410157-9.226562 15.980469-9.226562h.003906c6.570313 0 12.695313 3.535156 15.984375 9.230469l105.542969 182.808593c3.699219 6.40625 1.503906 14.601563-4.90625 18.300782-2.109375 1.21875-4.414062 1.796875-6.683594 1.796875-4.628906 0-9.132812-2.402344-11.617187-6.703125l-98.324219-170.300782-131.746094 228.195313zm0 0"/></svg>