<svg height="512pt" viewBox="0 -53 512 511" width="512pt" xmlns="http://www.w3.org/2000/svg"><path d="m205.652344 352.460938c82.519531 0 149.652344-67.132813 149.652344-149.652344 0-82.519532-67.132813-149.652344-149.652344-149.652344-82.519532 0-149.652344 67.132812-149.652344 149.652344 0 82.519531 67.132812 149.652344 149.652344 149.652344zm-101.605469-86.539063 57.585937-24c1.539063 1.730469 3.175782 3.367187 4.90625 4.90625l-24 57.585937c-15.585937-9.714843-28.777343-22.910156-38.492187-38.492187zm130.527344-63.113281c0 15.949218-12.972657 28.925781-28.921875 28.925781-15.949219 0-28.925782-12.976563-28.925782-28.925781 0-15.949219 12.976563-28.921875 28.925782-28.921875 15.949218 0 28.921875 12.972656 28.921875 28.921875zm-28.921875 119.652344c-12.484375 0-24.523438-1.925782-35.847656-5.488282l23.566406-56.535156c3.964844.84375 8.070312 1.296875 12.28125 1.296875 32.492187 0 58.925781-26.433594 58.925781-58.925781 0-4.210938-.453125-8.320313-1.296875-12.28125l56.535156-23.5625c3.5625 11.320312 5.488282 23.359375 5.488282 35.84375 0 65.976562-53.675782 119.652344-119.652344 119.652344zm101.605468-182.765626-57.585937 24c-1.539063-1.730468-3.179687-3.367187-4.90625-4.90625l24-57.585937c15.582031 9.714844 28.777344 22.910156 38.492187 38.492187zm-101.605468-56.539062c12.480468 0 24.523437 1.925781 35.84375 5.488281l-23.5625 56.539063c-3.964844-.84375-8.070313-1.296875-12.28125-1.296875-32.492188 0-58.925782 26.433593-58.925782 58.921875 0 4.210937.453126 8.320312 1.296876 12.285156l-56.535157 23.5625c-3.5625-11.324219-5.488281-23.363281-5.488281-35.847656 0-65.976563 53.675781-119.652344 119.652344-119.652344zm0 0"/><path d="m0 .5v404.617188h512v-404.617188zm482 374.617188h-452v-344.617188h452zm0 0"/><path d="m358.167969 326.015625 22.121093 20.265625 44.453126-48.519531v-146.910157c18.351562-6.261718 31.59375-23.65625 31.59375-44.101562 0-25.691406-20.902344-46.59375-46.59375-46.59375-25.691407 0-46.59375 20.902344-46.59375 46.59375 0 20.445312 13.242187 37.839844 31.59375 44.101562v135.246094zm51.574219-235.859375c9.148437 0 16.59375 7.445312 16.59375 16.59375s-7.445313 16.59375-16.59375 16.59375c-9.148438 0-16.59375-7.445312-16.59375-16.59375s7.445312-16.59375 16.59375-16.59375zm0 0"/></svg>