<svg height="511pt" viewBox="0 0 511.99972 511" width="511pt" xmlns="http://www.w3.org/2000/svg"><path d="m512 70.097656-69.597656-69.597656-17.695313 17.695312-16.109375-16.105468-21.222656 21.21875 16.109375 16.109375-12.472656 12.472656-16.109375-16.105469-21.222656 21.21875 16.109374 16.109375-86.789062 86.789063c-20.054688-9.011719-44.953125-14.824219-70.109375-6.996094-26.808594 8.339844-48.390625 30.460938-64.152344 65.746094l-3.230469 7.234375 4.152344 6.75c1.441406 2.347656 6.84375 13.546875 4.847656 21.484375-.519531 2.046875-1.773437 5.101562-6.6875 7.953125-17.359374 10.058593-35.320312-7.816407-36.011718-8.515625l-6.535156-6.78125-8.949219 2.929687c-3.242188 1.066407-79.632813 26.730469-94.007813 86.945313-9.023437 37.78125 8.359375 78.898437 51.664063 122.203125 35.613281 35.613281 69.832031 53.558593 102.003906 53.554687 6.585937 0 13.089844-.75 19.5-2.257812 60.347656-14.183594 86.523437-90.308594 87.609375-93.542969l3.082031-8.933594-6.835937-6.582031c-.765625-.757812-18.640625-18.722656-8.582032-36.074219 2.835938-4.890625 5.859376-6.148437 7.886719-6.671875 7.703125-1.988281 18.460938 2.976563 21.550781 4.828125l6.75 4.152344 7.234376-3.230469c35.285156-15.761718 57.40625-37.34375 65.75-64.152344 7.886718-25.347656 1.921874-50.4375-7.207032-70.566406l86.664063-86.664062 16.105469 16.105468 21.222656-21.222656-16.105469-16.105468 12.472656-12.476563 16.105469 16.109375 21.222656-21.222656-16.105468-16.109375zm-42.445312 0-52.957032 52.957032-27.152344-27.152344 52.957032-52.957032zm-221.996094 167.691406 120.664062-120.667968 27.152344 27.15625-120.664062 120.664062zm-216.074219 105.917969c8.207031-34.621093 49.257813-55.242187 66.523437-62.507812 14.726563 11.003906 39.902344 21.304687 64.867188 6.835937 10.757812-6.242187 17.925781-15.433594 20.734375-26.585937 3.609375-14.324219-.78125-28.46875-4.476563-36.90625 11.597657-23.324219 25.933594-37.769531 42.675782-42.980469 12.703125-3.953125 25.945312-2.398438 38.03125 1.496094l-54.726563 54.730468 24.1875 24.1875-67.304687 67.304688-11.339844-11.34375-21.222656 21.222656 11.34375 11.339844-76.066406 76.066406c-27.753907-30.9375-38.9375-58.769531-33.226563-82.859375zm299.785156-52.683593c-5.207031 16.746093-19.65625 31.078124-42.980469 42.679687-8.4375-3.699219-22.582031-8.085937-36.90625-4.480469-11.152343 2.808594-20.34375 9.980469-26.589843 20.738282-14.445313 24.925781-4.191407 50.066406 6.792969 64.800781-7.417969 17.265625-28.332032 58.089843-63.054688 66.191406-24.132812 5.636719-51.878906-5.523437-82.613281-33.152344l76.078125-76.078125 11.34375 11.34375 21.21875-21.222656-11.339844-11.34375 67.304688-67.300781 24.1875 24.1875 54.894531-54.898438c4.019531 12.222657 5.675781 25.65625 1.664062 38.535157zm0 0"/></svg>