<svg height="512pt" viewBox="0 0 512 512" width="512pt" xmlns="http://www.w3.org/2000/svg"><path d="m511.875 0h-234.9375v456h26.46875v56h182v-56h26.46875zm-204.9375 30h174.9375v396h-174.9375zm148.46875 452h-122v-26h122zm0 0"/><path d="m394.40625 279.941406c-34.203125 0-62.027344 27.828125-62.027344 62.03125 0 34.199219 27.824219 62.027344 62.027344 62.027344s62.027344-27.828125 62.027344-62.027344c0-34.203125-27.824219-62.03125-62.027344-62.03125zm0 94.058594c-17.660156 0-32.027344-14.367188-32.027344-32.027344s14.367188-32.03125 32.027344-32.03125 32.027344 14.371094 32.027344 32.03125-14.367188 32.027344-32.027344 32.027344zm0 0"/><path d="m394.40625 264.390625c29.140625 0 52.84375-23.707031 52.84375-52.84375 0-29.140625-23.703125-52.847656-52.84375-52.847656s-52.84375 23.707031-52.84375 52.847656c0 29.136719 23.707031 52.84375 52.84375 52.84375zm0-75.691406c12.597656 0 22.84375 10.25 22.84375 22.847656 0 12.59375-10.246094 22.84375-22.84375 22.84375s-22.84375-10.25-22.84375-22.84375c0-12.597656 10.246094-22.847656 22.84375-22.847656zm0 0"/><path d="m394.40625 142.253906c25.296875 0 45.875-20.578125 45.875-45.875 0-25.300781-20.578125-45.878906-45.875-45.878906s-45.878906 20.578125-45.878906 45.878906c0 25.296875 20.582031 45.875 45.878906 45.875zm0-61.753906c8.753906 0 15.875 7.121094 15.875 15.878906 0 8.753906-7.121094 15.875-15.875 15.875s-15.878906-7.121094-15.878906-15.875c0-8.757812 7.125-15.878906 15.878906-15.878906zm0 0"/><path d="m0 456h26.46875v56h182v-56h26.46875v-456h-234.9375zm178.46875 26h-122v-26h122zm-148.46875-452h174.9375v396h-174.9375zm0 0"/><path d="m117.46875 279.941406c-34.203125 0-62.03125 27.828125-62.03125 62.03125 0 34.199219 27.828125 62.027344 62.03125 62.027344s62.027344-27.828125 62.027344-62.027344c0-34.203125-27.824219-62.03125-62.027344-62.03125zm0 94.058594c-17.660156 0-32.03125-14.367188-32.03125-32.027344s14.371094-32.03125 32.03125-32.03125 32.027344 14.371094 32.027344 32.03125-14.367188 32.027344-32.027344 32.027344zm0 0"/><path d="m117.46875 264.390625c29.136719 0 52.84375-23.707031 52.84375-52.84375 0-29.140625-23.707031-52.847656-52.84375-52.847656-29.140625 0-52.847656 23.707031-52.847656 52.847656 0 29.136719 23.707031 52.84375 52.847656 52.84375zm0-75.691406c12.597656 0 22.84375 10.25 22.84375 22.847656 0 12.59375-10.246094 22.84375-22.84375 22.84375s-22.847656-10.25-22.847656-22.84375c0-12.597656 10.25-22.847656 22.847656-22.847656zm0 0"/><path d="m117.46875 142.253906c25.296875 0 45.875-20.578125 45.875-45.875 0-25.300781-20.578125-45.878906-45.875-45.878906s-45.878906 20.578125-45.878906 45.878906c0 25.296875 20.582031 45.875 45.878906 45.875zm0-61.753906c8.753906 0 15.875 7.121094 15.875 15.878906 0 8.753906-7.121094 15.875-15.875 15.875s-15.878906-7.121094-15.878906-15.875c0-8.757812 7.125-15.878906 15.878906-15.878906zm0 0"/></svg>