<svg height="512pt" viewBox="-21 0 512 512" width="512pt" xmlns="http://www.w3.org/2000/svg"><path d="m308.960938 354.851562h38.574218v-97.183593h-50.4375l-3.867187-31.648438h40.128906v-97.183593h-51.992187l-3.863282-31.648438h32.625v-97.1875h-252.292968v97.183594h32.628906l-3.867188 31.648437h-51.988281v97.183594h40.125l-3.863281 31.648437h-50.441406v97.1875h38.578124l-3.863281 31.648438h-55.144531v97.183594h43.277344l-3.457032 28.316406h30.203126l3.457031-28.316406h221.003906l3.457031 28.316406h30.203125l-3.457031-28.316406h43.277344v-97.183594h-55.140625zm-221.144532-287.648437v-37.222656h192.335938v37.222656zm163.347656 61.632813h-134.359374l3.863281-31.652344h126.632812zm-186.574218 67.199218v-37.222656h238.789062v37.222656zm202.300781 61.632813h-165.816406l3.863281-31.648438h158.089844zm-216.480469 67.203125v-37.222656h267.148438v37.222656zm232.210938 61.628906h-197.273438l3.863282-31.648438h189.546874zm55.363281 67.203125h-308.003906v-37.222656h308.003906zm0 0"/><path d="m470.394531 171.003906c0-27.144531-22.085937-49.230468-49.230469-49.230468-27.144531 0-49.226562 22.085937-49.226562 49.230468 0 21.917969 14.398438 40.523438 34.226562 46.886719v294.109375h30v-294.109375c19.832032-6.363281 34.230469-24.972656 34.230469-46.886719zm-49.230469 19.230469c-10.605468 0-19.230468-8.628906-19.230468-19.230469 0-10.601562 8.628906-19.230468 19.230468-19.230468 10.601563 0 19.230469 8.628906 19.230469 19.230468 0 10.601563-8.625 19.230469-19.230469 19.230469zm0 0"/></svg>