<svg height="512pt" viewBox="0 0 512.0003 512" width="512pt" xmlns="http://www.w3.org/2000/svg"><path d="m320.613281 255.089844 128.859375-132.542969c16.519532.339844 32.757813-6.105469 44.578125-17.925781 11.574219-11.574219 17.949219-26.964844 17.949219-43.335938 0-16.367187-6.375-31.757812-17.949219-43.335937-11.578125-11.574219-26.96875-17.949219-43.339843-17.949219-16.367188 0-31.757813 6.375-43.335938 17.949219-11.816406 11.816406-18.234375 28.03125-17.921875 44.578125l-133.453125 129.742187-133.453125-129.742187c.3125-16.542969-6.105469-32.757813-17.921875-44.574219-11.578125-11.578125-26.96875-17.953125-43.339844-17.953125-16.367187 0-31.757812 6.375-43.335937 17.949219-11.574219 11.578125-17.949219 26.96875-17.949219 43.335937 0 16.371094 6.375 31.761719 17.949219 43.335938 11.820312 11.820312 28.042969 18.25 44.578125 17.925781l128.855468 132.542969-175.933593 171.046875c-9.863281 9.589843-15.3515628 22.398437-15.44531275 36.0625-.09765625 13.394531 5.03124975 25.953125 14.43749975 35.359375 9.324219 9.320312 21.738282 14.441406 34.996094 14.441406h.363281c13.664063-.097656 26.472657-5.585938 36.0625-15.449219l170.136719-175 170.136719 175c9.589843 9.863281 22.398437 15.351563 36.0625 15.449219h.363281c13.257812 0 25.671875-5.121094 34.996094-14.441406 9.40625-9.40625 14.535156-21.964844 14.441406-35.359375-.097656-13.664063-5.582031-26.472657-15.449219-36.0625zm-246.890625-164.066406-7.644531 1.175781c-9.984375 1.542969-19.792969-1.667969-26.914063-8.789063-12.199218-12.199218-12.199218-32.046875 0-44.246094 5.910157-5.910156 13.765626-9.164062 22.121094-9.164062 8.359375 0 16.214844 3.253906 22.125 9.164062 7.121094 7.121094 10.324219 16.929688 8.789063 26.914063l-1.175781 7.644531 143.457031 139.46875-21.585938 20.984375zm-9.371094 384.617187c-3.949218 4.0625-9.191406 6.320313-14.761718 6.359375-5.332032.023438-10.25-1.972656-13.933594-5.65625s-5.691406-8.632812-5.65625-13.933594c.039062-5.570312 2.296875-10.8125 6.359375-14.765625l384.613281-373.921875-1.171875-7.644531c-1.535156-9.984375 1.667969-19.792969 8.789063-26.914063 5.910156-5.910156 13.765625-9.164062 22.121094-9.164062 8.359374 0 16.214843 3.253906 22.125 9.164062 12.199218 12.199219 12.199218 32.046876 0 44.246094-7.121094 7.121094-16.929688 10.324219-26.914063 8.789063l-7.644531-1.175781zm411.992188.703125c-3.648438 3.652344-8.542969 5.65625-13.789062 5.65625-.046876 0-.09375 0-.144532 0-5.570312-.039062-10.8125-2.300781-14.761718-6.359375l-170.726563-175.609375 22.78125-23.429688 175.9375 171.046876c4.058594 3.949218 6.320313 9.191406 6.359375 14.761718.035156 5.300782-1.972656 10.25-5.65625 13.933594zm0 0"/></svg>