<svg height="512pt" viewBox="0 0 512 512" width="512pt" xmlns="http://www.w3.org/2000/svg"><path d="m391.609375 137.714844v-137.714844h-150.828125v206.570312h-89.953125v-137.714843h-150.828125v443.144531h512v-374.285156zm-120.390625 167.714844h89.953125v38.855468h-89.953125zm89.953125-30h-89.953125v-38.859376h89.953125zm-120.390625 68.855468h-89.953125v-38.855468h89.953125zm-89.953125 30h89.953125v38.855469h-89.953125zm120.390625 0h89.953125v38.855469h-89.953125zm-.4375-344.285156h90.828125v38.855469h-90.828125zm0 68.855469h90.828125v38.859375h-90.828125zm0 68.859375h90.390625v38.855468h-90.390625zm-30 68.855468v38.859376h-89.953125v-38.859376zm-210.78125-137.714843h90.828125v38.859375h-90.828125zm0 68.859375h90.828125v38.855468h-90.828125zm0 68.855468h90.390625v38.859376h-90.390625zm0 68.859376h90.390625v38.855468h-90.390625zm0 68.855468h90.390625v38.855469h-90.390625zm0 107.714844v-38.855469h90.390625v38.855469zm120.828125 0v-38.855469h89.953125v38.855469zm120.390625 0v-38.855469h89.953125v38.855469zm210.78125 0h-90.390625v-38.855469h90.390625zm0-68.855469h-90.390625v-38.859375h90.390625zm0-68.859375h-90.390625v-38.855468h90.390625zm0-68.855468h-90.390625v-38.859376h90.390625zm-90.390625-68.859376v-38.855468h90.390625v38.855468zm0 0"/></svg>