<svg height="512pt" viewBox="0 0 512 512" width="512pt" xmlns="http://www.w3.org/2000/svg"><path d="m0 0v512h512v-512zm482 30v59.414062h-452v-59.414062zm-452 452v-362.585938h452v362.585938zm0 0"/><path d="m115.566406 152.5h-30v54.855469h-29v30h29v213.644531h30v-213.644531h29v-30h-29zm0 0"/><path d="m219.1875 152.5h-30v227.5h-29v30h29v41h30v-41h29v-30h-29zm0 0"/><path d="m322.8125 152.5h-30v128.457031h-29v30h29v140.042969h30v-140.042969h29v-30h-29zm0 0"/><path d="m426.433594 152.5h-30v37.816406h-29v30h29v230.683594h30v-230.683594h29v-30h-29zm0 0"/></svg>