<svg height="511pt" viewBox="-17 1 511 511.999" width="511pt" xmlns="http://www.w3.org/2000/svg"><path d="m153.644531 97.070312v255.617188c-16.273437-14.808594-37.886719-23.84375-61.566406-23.84375-50.496094 0-91.578125 41.082031-91.578125 91.578125s41.082031 91.578125 91.578125 91.578125c50.433594 0 91.46875-40.980469 91.574219-91.386719h.003906v-182.65625l262.992188-79.03125v132.152344c-16.273438-14.804687-37.886719-23.84375-61.566407-23.84375-50.496093 0-91.578125 41.082031-91.578125 91.578125s41.082032 91.578125 91.578125 91.578125c50.324219 0 91.292969-40.804687 91.570313-91.066406h.007812v-359.324219zm-61.570312 384.917969c-33.945313 0-61.566407-27.617187-61.566407-61.566406s27.621094-61.566406 61.566407-61.566406c33.953125 0 61.570312 27.617187 61.570312 61.566406s-27.617187 61.566406-61.570312 61.566406zm91.582031-275.367187v-87.234375l262.992188-79.035157v87.238282zm201.421875 213.761718c-33.949219 0-61.566406-27.621093-61.566406-61.570312 0-33.945312 27.621093-61.566406 61.566406-61.566406 33.949219 0 61.570313 27.621094 61.570313 61.566406 0 33.949219-27.621094 61.570312-61.570313 61.570312zm0 0"/></svg>