<svg xmlns="http://www.w3.org/2000/svg" height="512" width="512" style=""><rect id="backgroundrect" width="100%" height="100%" x="0" y="0" fill="none" stroke="none"/><g class="currentLayer" style=""><title>Layer 1</title><path d="m437.019531 74.980469c-48.351562-48.351563-112.640625-74.980469-181.019531-74.980469s-132.667969 26.628906-181.019531 74.980469c-48.351563 48.351562-74.980469 112.640625-74.980469 181.019531s26.628906 132.667969 74.980469 181.019531c48.351562 48.351563 112.640625 74.980469 181.019531 74.980469s132.667969-26.628906 181.019531-74.980469c48.351563-48.351562 74.980469-112.640625 74.980469-181.019531s-26.628906-132.667969-74.980469-181.019531zm17.878907 73.789062-115.417969 48.105469c-6.691407-9.421875-14.933594-17.664062-24.355469-24.355469l48.105469-115.417969c38.738281 20.96875 70.699219 52.929688 91.667969 91.667969zm-271.230469 107.230469c0-39.886719 32.449219-72.332031 72.332031-72.332031s72.332031 32.449219 72.332031 72.332031-32.445312 72.332031-72.332031 72.332031-72.332031-32.445312-72.332031-72.332031zm72.332031-226c28.128906 0 55.066406 5.179688 79.929688 14.613281l-47.628907 114.28125c-10.15625-3.386719-21.019531-5.226562-32.300781-5.226562-56.425781 0-102.332031 45.90625-102.332031 102.332031 0 11.28125 1.839843 22.144531 5.226562 32.304688l-114.28125 47.628906c-9.433593-24.867188-14.613281-51.804688-14.613281-79.933594 0-124.617188 101.382812-226 226-226zm-198.898438 333.230469 115.417969-48.105469c6.691407 9.421875 14.933594 17.664062 24.355469 24.355469l-48.105469 115.417969c-38.738281-20.96875-70.699219-52.929688-91.667969-91.667969zm198.898438 118.769531c-28.128906 0-55.066406-5.179688-79.933594-14.613281l47.628906-114.28125c10.160157 3.386719 21.023438 5.226562 32.304688 5.226562 56.425781 0 102.332031-45.90625 102.332031-102.332031 0-11.28125-1.839843-22.144531-5.226562-32.304688l114.28125-47.628906c9.433593 24.863282 14.613281 51.804688 14.613281 79.933594 0 124.617188-101.382812 226-226 226zm0 0" id="svg_1"/><path d="m304.667969 256c0-26.835938-21.832031-48.667969-48.667969-48.667969s-48.667969 21.832031-48.667969 48.667969 21.832031 48.667969 48.667969 48.667969 48.667969-21.832031 48.667969-48.667969zm-67.335938 0c0-10.292969 8.375-18.667969 18.667969-18.667969s18.667969 8.375 18.667969 18.667969-8.375 18.667969-18.667969 18.667969-18.667969-8.375-18.667969-18.667969zm0 0" id="svg_2"/><path fill="#4a90d6" fill-opacity="1" stroke="#222222" stroke-opacity="1" stroke-width="2" stroke-dasharray="none" stroke-linejoin="round" stroke-linecap="butt" stroke-dashoffset="" fill-rule="nonzero" opacity="1" marker-start="" marker-mid="" marker-end="" d="M201.61789727237579,102.51342212906889L262.065656960688,293.5581934896605" id="svg_3"/></g></svg>